<svg width="40" height="40" viewBox="0 0 40 40" fill="none" xmlns="http://www.w3.org/2000/svg">
<g clip-path="url(#clip0_2365_444)">
<rect width="40" height="40" fill="white"/>
<path fill-rule="evenodd" clip-rule="evenodd" d="M30.9877 7.81395C29.7581 7.22594 30.6518 5.3582 31.881 5.94622C37.934 8.84198 40.7766 15.1169 39.8172 21.6356C39.6178 22.9893 37.564 22.6858 37.7625 21.3352C38.5903 15.7143 36.2058 10.3109 30.9877 7.81395ZM20.0002 31.9234C23.5841 29.7429 27.916 25.9516 29.3322 21.1079C31.0626 15.1914 24.9782 12.5837 20.8 17.6595C20.3777 18.1722 19.6023 18.1536 19.1906 17.6485C15.1007 12.6249 8.92143 15.136 10.6677 21.1079C12.0848 25.952 16.4163 29.7429 20.0002 31.9234ZM25.5427 30.3606C27.8376 28.2722 30.249 25.3538 31.3218 21.6844C33.5494 14.0672 25.6734 9.84608 20.0002 15.4661C14.327 9.84652 6.45062 14.0672 8.6786 21.6848C10.3678 27.4613 15.4924 31.7165 19.4804 34.0269C19.8181 34.2228 20.2209 34.2064 20.5337 34.0189C21.155 33.6582 23.2957 32.4056 25.5427 30.3606ZM30.0984 12.059C32.8581 13.8496 33.992 16.7729 33.7483 19.9673C33.6446 21.3272 35.7149 21.4876 35.819 20.1215C36.1119 16.2823 34.6767 12.6271 31.3754 10.4186C29.965 9.47519 29.011 11.3527 30.0984 12.059ZM6.2521 19.9673C6.35313 21.329 4.28555 21.4863 4.18142 20.1215C3.88099 16.1831 5.37251 12.5451 8.77697 10.3176C9.84001 9.62231 11.1809 11.2189 9.77797 12.1405C7.11396 13.8904 6.00972 16.877 6.2521 19.9673ZM2.23747 21.3352C2.4351 22.6871 0.382144 22.9889 0.182742 21.6356C-0.776604 15.1174 2.06643 8.84154 8.11895 5.94622C9.34859 5.3582 10.2419 7.22594 9.01227 7.81395C3.79945 10.3069 1.4053 15.7196 2.23747 21.3352Z" fill="#00C2BA" stroke="white" stroke-width="0.5"/>
</g>
<defs>
<clipPath id="clip0_2365_444">
<rect width="40" height="40" fill="white"/>
</clipPath>
</defs>
</svg>
