<svg width="40" height="40" viewBox="0 0 40 40" fill="none" xmlns="http://www.w3.org/2000/svg">
<g clip-path="url(#clip0_2365_456)">
<rect width="40" height="40" fill="white"/>
<path d="M36.3637 4.54548H35.2879C34.9111 3.48865 33.9111 2.72729 32.7274 2.72729H22.7274C21.5437 2.72729 20.5437 3.48865 20.1668 4.54548H3.63636C1.63069 4.54548 0 6.17617 0 8.18184V30C0 32.0057 1.63069 33.6364 3.63636 33.6364V35.4546C3.63636 36.4565 4.45265 37.2728 5.45455 37.2728H10.9091C11.911 37.2728 12.7273 36.4565 12.7273 35.4546V33.6364H27.2727V35.4546C27.2727 36.4565 28.089 37.2728 29.0909 37.2728H34.5455C35.5473 37.2728 36.3636 36.4565 36.3636 35.4546V33.6364C38.3693 33.6364 40 32.0057 40 30V8.18184C40 6.17617 38.3694 4.54548 36.3637 4.54548ZM21.8183 5.45457C21.8183 4.95265 22.2255 4.54548 22.7274 4.54548H32.7274C33.2293 4.54548 33.6365 4.95267 33.6365 5.45457V17.2727C33.6365 17.7747 33.2293 18.1818 32.7274 18.1818H22.7274C22.2255 18.1818 21.8183 17.7746 21.8183 17.2727V5.45457ZM10.9092 35.4546H5.45464V33.6364H10.9092V35.4546ZM34.5456 35.4546H29.091V33.6364H34.5456V35.4546ZM38.1819 30C38.1819 31.0019 37.3656 31.8182 36.3637 31.8182H3.63646C2.63457 31.8182 1.81828 31.0019 1.81828 30V8.18184C1.81828 7.17995 2.63457 6.36366 3.63646 6.36366H20.0001V17.2727C20.0001 18.7766 21.2236 20 22.7274 20H32.7274C34.2312 20 35.4546 18.7766 35.4546 17.2727V6.36366H36.3637C37.3656 6.36366 38.1819 7.17995 38.1819 8.18184V30Z" fill="#00C2BA" stroke="white" stroke-width="0.5"/>
<path d="M23.6365 27.273C22.1326 27.273 20.9092 26.0496 20.9092 24.5458C20.9092 23.0419 22.1326 21.8185 23.6365 21.8185C25.1403 21.8185 26.3637 23.0419 26.3637 24.5458C26.3637 26.0496 25.1403 27.273 23.6365 27.273ZM23.6365 23.6367C23.1345 23.6367 22.7274 24.0439 22.7274 24.5458C22.7274 25.0477 23.1346 25.4548 23.6365 25.4548C24.1383 25.4548 24.5455 25.0477 24.5455 24.5458C24.5455 24.0439 24.1383 23.6367 23.6365 23.6367Z" fill="#00C2BA" stroke="white" stroke-width="0.5"/>
<path d="M31.8183 27.273C30.3145 27.273 29.0911 26.0496 29.0911 24.5458C29.0911 23.0419 30.3145 21.8185 31.8183 21.8185C33.3221 21.8185 34.5456 23.0419 34.5456 24.5458C34.5456 26.0496 33.3221 27.273 31.8183 27.273ZM31.8183 23.6367C31.3164 23.6367 30.9092 24.0439 30.9092 24.5458C30.9092 25.0477 31.3164 25.4548 31.8183 25.4548C32.3202 25.4548 32.7274 25.0477 32.7274 24.5458C32.7274 24.0439 32.3202 23.6367 31.8183 23.6367Z" fill="#00C2BA" stroke="white" stroke-width="0.5"/>
<path d="M26.3636 15.909C26.1534 15.909 25.9413 15.837 25.7708 15.6893C25.3901 15.3616 25.3485 14.7878 25.6742 14.4071L27.5303 12.2518L26.053 11.8825C25.7462 11.8067 25.5019 11.5757 25.4072 11.2745C25.3106 10.9734 25.3788 10.6457 25.5852 10.4071L28.4034 7.13437C28.731 6.7518 29.3068 6.71202 29.6856 7.03778C30.0663 7.36543 30.1079 7.93931 29.7822 8.31996L27.9261 10.4753L29.4034 10.8446C29.7102 10.9203 29.9545 11.1514 30.0492 11.4525C30.1458 11.7537 30.0776 12.0813 29.8712 12.32L27.053 15.5927C26.8731 15.801 26.6193 15.909 26.3636 15.909Z" fill="#00C2BA" stroke="white" stroke-width="0.5"/>
<path d="M16.3638 29.0914H5.45475C4.95283 29.0914 4.54565 28.6842 4.54565 28.1823C4.54565 27.6804 4.95285 27.2732 5.45475 27.2732H16.3638C16.8658 27.2732 17.2729 27.6804 17.2729 28.1823C17.2729 28.6842 16.8657 29.0914 16.3638 29.0914Z" fill="#00C2BA" stroke="white" stroke-width="0.5"/>
<path d="M16.3638 25.4549H5.45475C4.95283 25.4549 4.54565 25.0477 4.54565 24.5458C4.54565 24.0439 4.95285 23.6367 5.45475 23.6367H16.3638C16.8658 23.6367 17.2729 24.0439 17.2729 24.5458C17.2729 25.0477 16.8657 25.4549 16.3638 25.4549Z" fill="#00C2BA" stroke="white" stroke-width="0.5"/>
<path d="M16.3638 21.8184H5.45475C4.95283 21.8184 4.54565 21.4112 4.54565 20.9093C4.54565 20.4074 4.95285 20.0002 5.45475 20.0002H16.3638C16.8658 20.0002 17.2729 20.4074 17.2729 20.9093C17.2729 21.4112 16.8657 21.8184 16.3638 21.8184Z" fill="#00C2BA" stroke="white" stroke-width="0.5"/>
<path d="M15.4547 18.1823H6.36384C5.36195 18.1823 4.54565 17.366 4.54565 16.3642V10.9096C4.54565 9.90772 5.36195 9.09143 6.36384 9.09143H15.4547C16.4566 9.09143 17.2729 9.90772 17.2729 10.9096V16.3642C17.2729 17.366 16.4566 18.1823 15.4547 18.1823ZM6.36384 10.9096V16.3642H15.4547V10.9096H6.36384Z" fill="#00C2BA" stroke="white" stroke-width="0.5"/>
</g>
<defs>
<clipPath id="clip0_2365_456">
<rect width="40" height="40" fill="white"/>
</clipPath>
</defs>
</svg>
