<svg width="40" height="40" viewBox="0 0 40 40" fill="none" xmlns="http://www.w3.org/2000/svg">
<g clip-path="url(#clip0_2365_419)">
<path d="M39.2293 25.9861C38.4443 25.1469 37.2372 24.8795 36.1633 25.2954C34.9265 25.7707 33.5195 26.5951 31.9938 27.7462C31.3347 28.2438 30.4979 28.6077 29.5795 28.875C29.7499 27.9912 29.5573 26.8178 28.7131 26.1717C28.3872 25.9266 28.0021 25.7855 27.5429 25.741C25.2546 25.5404 21.9515 24.6047 18.2337 23.1119C13.3532 21.1587 7.76941 25.7558 7.53242 25.9564C7.48799 25.9935 7.45837 26.0455 7.42874 26.09L7.02142 25.3845C6.92515 25.2137 6.76222 25.0874 6.56967 25.0354C6.38453 24.9835 6.17717 25.0132 6.00683 25.1097L0.370864 28.3774C0.0153872 28.5854 -0.103105 29.0384 0.0968532 29.3949L5.99208 39.6287C6.08836 39.7995 6.25129 39.9258 6.44384 39.9778C6.50308 39.9926 6.56973 40.0001 6.63638 40.0001C6.76228 40.0001 6.89559 39.9629 7.00667 39.9035L12.6426 36.6358C12.9981 36.4278 13.1166 35.9748 12.9167 35.6183L12.4575 34.8163C14.2719 34.0885 16.4715 34.4524 19.1746 34.9054C21.0853 35.2247 23.1737 35.5812 25.4623 35.5812C26.2843 35.5812 27.1286 35.5367 28.0025 35.4253C32.8531 34.8237 36.7041 32.1427 39.0891 29.9887C39.6668 29.454 40 28.7039 40 27.9166C40 27.1889 39.726 26.5056 39.2298 25.9857L39.2293 25.9861ZM6.91029 38.2399L1.75587 29.2909L6.11047 26.7658L10.7687 34.8536V34.8759L10.7835 34.8908L11.2575 35.7151L6.90287 38.2402L6.91029 38.2399ZM38.0961 28.8897C36.2817 30.531 32.5345 33.3605 27.8242 33.9474C24.7434 34.3336 21.9143 33.8583 19.4259 33.435C16.5155 32.9449 13.9606 32.5215 11.7163 33.5093L8.10972 27.2409C8.25043 27.2261 8.38373 27.1815 8.49482 27.085C8.54666 27.0404 13.6417 22.8592 17.6927 24.4856C21.5363 26.0304 24.9946 26.9958 27.4237 27.2112C27.4904 27.2112 27.6755 27.2335 27.8236 27.3449C28.1051 27.5603 28.2384 28.1247 28.1273 28.6223C28.1273 28.6297 28.1273 28.6446 28.1199 28.652C28.0458 28.9268 27.831 29.1644 27.5422 29.2981C24.254 29.7808 20.8175 29.4095 20.7659 29.4095C20.3511 29.3724 19.9957 29.662 19.9512 30.0631C19.9068 30.4715 20.1956 30.8354 20.6029 30.88C20.7881 30.9023 23.1801 31.1548 25.9573 30.9543H25.9648C28.3938 30.7761 31.1045 30.2562 32.8819 28.9194C34.6445 27.59 35.9256 26.9588 36.6958 26.6691C37.2068 26.4686 37.7771 26.5949 38.1548 26.9959C38.3918 27.241 38.5177 27.5677 38.5177 27.9094C38.5177 28.2807 38.3621 28.6298 38.0955 28.8823L38.0961 28.8897Z" fill="#00C2BA"/>
<path d="M20.0042 9.78835C22.6926 9.78835 24.8847 7.59747 24.8847 4.89411C24.8847 2.19076 22.7 -0.00012207 20.0042 -0.00012207C17.3085 -0.00012207 15.1238 2.19076 15.1238 4.89411C15.1238 7.59747 17.3085 9.78835 20.0042 9.78835ZM20.0042 1.49282C21.8779 1.49282 23.4035 3.02274 23.4035 4.90167C23.4035 6.78061 21.8779 8.31053 20.0042 8.31053C18.1306 8.31053 16.605 6.78061 16.605 4.90167C16.605 3.02274 18.1306 1.49282 20.0042 1.49282Z" fill="#00C2BA"/>
<path d="M11.7318 21.5451C12.1391 21.5451 12.4724 21.2109 12.4724 20.8025C12.4724 16.6361 15.8494 13.2494 20.0042 13.2494C24.159 13.2494 27.5361 16.6359 27.5361 20.8025C27.5361 21.2109 27.8693 21.5451 28.2766 21.5451C28.684 21.5451 29.0172 21.2109 29.0172 20.8025C29.0172 15.8194 24.9737 11.764 20.0042 11.764C15.0347 11.764 10.9912 15.819 10.9912 20.8025C10.9912 21.2109 11.3245 21.5451 11.7318 21.5451Z" fill="#00C2BA"/>
<path d="M8.96952 10.9101C11.2801 10.9101 13.1612 9.02368 13.1612 6.70656C13.1612 4.38943 11.2801 2.5105 8.96952 2.5105C6.65892 2.5105 4.77783 4.3969 4.77783 6.70656C4.77783 9.01622 6.65892 10.9101 8.96952 10.9101ZM8.96952 3.99578C10.4655 3.99578 11.6801 5.21376 11.6801 6.70651C11.6801 8.19926 10.4655 9.42469 8.96952 9.42469C7.47353 9.42469 6.25899 8.20672 6.25899 6.70651C6.25899 5.2063 7.47353 3.99578 8.96952 3.99578Z" fill="#00C2BA"/>
<path d="M2.07498 20.7055C2.4823 20.7055 2.81556 20.3713 2.81556 19.9629C2.81556 16.5615 5.5779 13.7915 8.96958 13.7915C9.74717 13.7915 10.5026 13.9326 11.2209 14.2148C11.606 14.3633 12.0281 14.1777 12.1837 13.7989C12.3318 13.4201 12.1466 12.9894 11.7689 12.8335C10.8802 12.4844 9.9397 12.3062 8.97697 12.3062C4.7631 12.3062 1.3418 15.7447 1.3418 19.9629C1.3418 20.3713 1.67505 20.7055 2.08237 20.7055L2.07498 20.7055Z" fill="#00C2BA"/>
<path d="M31.0386 10.9101C33.3492 10.9101 35.2303 9.02368 35.2303 6.70656C35.2303 4.38943 33.3492 2.5105 31.0386 2.5105C28.728 2.5105 26.8469 4.3969 26.8469 6.70656C26.8469 9.01622 28.728 10.9101 31.0386 10.9101ZM31.0386 3.99578C32.5346 3.99578 33.7492 5.21376 33.7492 6.70651C33.7492 8.19926 32.5346 9.42469 31.0386 9.42469C29.5426 9.42469 28.3281 8.20672 28.3281 6.70651C28.3281 5.2063 29.5426 3.99578 31.0386 3.99578Z" fill="#00C2BA"/>
<path d="M28.2393 12.8335C27.8616 12.982 27.6691 13.4128 27.8246 13.7989C27.9801 14.1851 28.4023 14.3708 28.7873 14.2148C29.5057 13.9326 30.2611 13.7915 31.0387 13.7915C34.4305 13.7915 37.1927 16.5616 37.1927 19.9629C37.1927 20.3713 37.526 20.7055 37.9333 20.7055C38.3406 20.7055 38.6738 20.3713 38.6738 19.9629C38.6738 15.7371 35.245 12.3062 31.0387 12.3062C30.0759 12.3062 29.1354 12.4844 28.2467 12.8335L28.2393 12.8335Z" fill="#00C2BA"/>
</g>
<defs>
<clipPath id="clip0_2365_419">
<rect width="40" height="40" fill="white"/>
</clipPath>
</defs>
</svg>
