<svg width="40" height="40" viewBox="0 0 40 40" fill="none" xmlns="http://www.w3.org/2000/svg">
<path d="M0.555569 36.4565H28.2105C28.518 36.4565 28.7664 36.2081 28.7664 35.9005C28.7664 35.593 28.518 35.3446 28.2105 35.3446H23.4589V33.7229L26.0082 32.4532C27.7599 31.5782 28.5526 29.4795 27.824 27.7066L25.3043 20.4337C24.7812 19.1755 23.5608 18.3613 22.1957 18.3613H18.018C17.8585 18.3613 17.7072 18.4304 17.6019 18.5488C17.4966 18.6689 17.4473 18.8268 17.467 18.9863C17.4703 19.011 17.4687 19.034 17.4687 19.0587C17.4687 20.7446 16.0838 22.1163 14.3799 22.1163C12.6775 22.1163 11.291 20.7446 11.291 19.0587C11.291 19.034 11.2894 19.011 11.2927 18.9863C11.3124 18.8285 11.2631 18.6689 11.1578 18.5488C11.0526 18.4288 10.9012 18.3613 10.7417 18.3613L6.57065 18.363C5.19729 18.363 3.97686 19.1771 3.45055 20.4666L0.947247 27.6789C0.207117 29.4832 1.00317 31.5802 2.75812 32.4536L5.30584 33.7266V35.3434L0.555919 35.345C0.248351 35.345 0 35.5934 0 35.901C0 36.2085 0.248355 36.4569 0.555919 36.4569L0.555569 36.4565ZM6.4175 33.4219V33.417V25.8283C6.4175 25.6309 6.57704 25.4714 6.77441 25.4714H21.9901C22.1874 25.4714 22.347 25.6326 22.347 25.8283V35.345H6.41763L6.4175 33.4219ZM3.25466 31.4597C2.01781 30.8446 1.45532 29.3676 1.98657 28.0715L4.48986 20.8576C4.83362 20.0171 5.65105 19.4727 6.57047 19.4727H10.2004C10.4109 21.578 12.2037 23.2277 14.3797 23.2277C16.5541 23.2277 18.3485 21.578 18.559 19.4727H22.1956C23.1101 19.4727 23.9275 20.0171 24.2663 20.828L26.7844 28.0996C27.3042 29.3677 26.745 30.843 25.5114 31.4598L23.4571 32.4829L23.4588 25.8281C23.4588 25.0189 22.7992 24.3593 21.99 24.3593H6.77434C5.96512 24.3593 5.30558 25.0172 5.30558 25.8281V32.4858L3.25466 31.4597Z" fill="#00C2BA"/>
<path d="M17.0263 7.81804C16.6776 7.53185 16.2023 7.45619 15.7812 7.62231L15.5559 7.71113L15.1414 7.36409C14.7368 7.02692 14.222 6.87394 13.7302 6.94632C11.6513 7.2506 10.2549 8.9628 10.2549 11.2078C10.2549 13.6848 11.9506 16.4462 14.3848 16.4462C16.8158 16.4462 18.5099 13.6863 18.5099 11.2078C18.5099 9.80979 17.9819 8.60587 17.0263 7.81804ZM14.3832 15.3347C12.8322 15.3347 11.3651 13.3298 11.3651 11.208C11.3651 9.51232 12.3569 8.2705 13.8898 8.04684C13.9177 8.04355 13.9441 8.04026 13.972 8.04026C14.1283 8.04026 14.2895 8.10276 14.426 8.21625L15.0921 8.77381C15.2467 8.90374 15.4621 8.93993 15.6513 8.86427L16.1842 8.65539C16.2302 8.63729 16.2828 8.64552 16.3174 8.67512C17.0131 9.24751 17.3947 10.1472 17.3947 11.2064C17.398 13.3298 15.9325 15.3347 14.3832 15.3347Z" fill="#00C2BA"/>
<path d="M19.2959 15.8117C18.99 15.8315 18.7581 16.0963 18.7778 16.4022C18.7975 16.6966 19.0409 16.9219 19.3321 16.9219C19.3436 16.9219 19.3567 16.9219 19.3699 16.9203C20.5442 16.843 21.6248 16.4005 22.5821 15.6078C23.0821 15.1933 23.3354 14.565 23.2597 13.9252C23.1873 13.3117 22.814 12.7821 22.2614 12.5107C21.1281 11.9548 20.9077 9.99422 20.8666 9.40706L20.8534 9.19982C20.8123 8.54685 20.7679 7.93337 20.6725 7.60773C19.7827 4.611 16.8403 3.54358 14.3815 3.54358C11.9243 3.54358 8.98193 4.61104 8.09182 7.60773C7.99478 7.93339 7.95037 8.54689 7.9109 9.19982L7.89774 9.4087C7.85662 9.99586 7.63458 11.9581 6.503 12.5123C5.95036 12.7837 5.57701 13.3117 5.50463 13.9268C5.42897 14.5666 5.68227 15.1966 6.18228 15.6094C7.13951 16.4022 8.22179 16.843 9.39447 16.9219C9.70039 16.9384 9.96521 16.7097 9.98491 16.4038C10.0046 16.0979 9.77274 15.8331 9.4668 15.8134C8.53092 15.7509 7.66418 15.3956 6.88948 14.7542C6.68225 14.5815 6.57698 14.3216 6.60659 14.0585C6.63455 13.8167 6.77599 13.6177 6.99146 13.5124C8.61155 12.718 8.93883 10.4334 9.00629 9.48769L9.02109 9.26894C9.04083 8.93506 9.09017 8.15546 9.1576 7.92519C9.87306 5.51397 12.3254 4.65544 14.3829 4.65544C16.4388 4.65544 18.8911 5.51401 19.6065 7.92354C19.6756 8.15545 19.7233 8.93669 19.7447 9.26894L19.7578 9.48605C19.8236 10.4318 20.1509 12.7163 21.7726 13.5107C21.9881 13.616 22.1296 13.8167 22.1575 14.0568C22.1888 14.32 22.0835 14.5815 21.8746 14.7542C21.1 15.394 20.2334 15.7492 19.2959 15.8117Z" fill="#00C2BA"/>
<path d="M37.0722 27.7094H37.0031V26.517C37.0031 26.2094 36.7547 25.9611 36.4472 25.9611H29.957C29.6495 25.9611 29.4011 26.2094 29.4011 26.517V34.4379C29.4011 35.5497 30.3057 36.4543 31.4176 36.4543H34.9867C36.0986 36.4543 37.0032 35.5497 37.0032 34.4379V33.5645H37.0723C38.6858 33.5645 39.9999 32.2504 39.9999 30.6369C39.9999 29.0218 38.6873 27.7094 37.0722 27.7094ZM35.8929 34.4379C35.8929 34.9362 35.4866 35.3441 34.9867 35.3441H31.4175C30.9175 35.3441 30.5113 34.9379 30.5113 34.4379V27.0728H35.8911V33.0088L35.8929 34.4379ZM37.0722 32.4527H37.0031V28.8194H37.0722C38.0738 28.8194 38.888 29.6336 38.888 30.6352C38.888 31.6385 38.0738 32.4527 37.0722 32.4527Z" fill="#00C2BA"/>
<path d="M32.9915 24.7817C33.0968 24.8754 33.23 24.9231 33.3616 24.9231C33.5145 24.9231 33.6675 24.8606 33.7761 24.7373C34.2399 24.2159 34.4438 23.5235 34.3353 22.8343C34.2267 22.1452 33.8171 21.5498 33.2152 21.1978C32.8747 20.9988 32.6592 20.66 32.6231 20.2669C32.5885 19.8738 32.7399 19.5021 33.0392 19.2455C33.2728 19.0465 33.2991 18.6962 33.1001 18.4626C32.901 18.229 32.5491 18.2027 32.3171 18.4017C31.7398 18.8952 31.4487 19.6106 31.5162 20.3672C31.5836 21.1238 31.9997 21.7752 32.656 22.1584C32.9685 22.3409 33.1806 22.6501 33.2382 23.0087C33.2941 23.3672 33.1889 23.7274 32.9487 23.9972C32.7431 24.2274 32.7629 24.5777 32.9915 24.7817Z" fill="#00C2BA"/>
<path d="M33.9738 14.3707C33.7748 14.1371 33.4245 14.1108 33.1909 14.3098C32.6136 14.8033 32.3225 15.5204 32.3899 16.2753C32.4574 17.0319 32.8735 17.6832 33.5281 18.0664C33.8406 18.249 34.0528 18.5582 34.1103 18.9168C34.1679 19.2753 34.061 19.6339 33.8209 19.9053C33.6169 20.1339 33.6366 20.4859 33.8653 20.6898C33.9705 20.7852 34.1038 20.8313 34.2353 20.8313C34.3883 20.8313 34.5413 20.7688 34.6498 20.6454C35.1137 20.1257 35.3176 19.4316 35.209 18.7441C35.1005 18.055 34.6909 17.4595 34.0889 17.1076C33.7485 16.9086 33.533 16.5698 33.4968 16.1783C33.4623 15.7852 33.6136 15.4135 33.913 15.1569C34.1449 14.9563 34.1728 14.6042 33.9738 14.3707Z" fill="#00C2BA"/>
</svg>
