<svg width="32" height="40" viewBox="0 0 32 40" fill="none" xmlns="http://www.w3.org/2000/svg">
<path d="M15.6631 0.75C24.6203 0.715518 31.387 8.36703 30.6162 17.3398C30.019 24.2739 26.7233 29.6694 21.9375 34.418L21.4697 34.876C19.8387 36.4474 17.9838 37.7753 16.1094 39.2158C16.1043 39.2177 16.0965 39.2213 16.085 39.2246C16.0456 39.2358 15.9901 39.2459 15.9277 39.249C15.8652 39.2521 15.8128 39.2475 15.7793 39.2412L15.7773 39.2402C10.009 35.2633 5.20469 30.5191 2.63379 23.9824C1.15603 20.2256 0.206155 16.4773 1.09277 12.5078V12.5068C2.57644 5.8579 8.22825 1.08212 15.0039 0.766602L15.6631 0.75ZM15.8037 4.95215C10.6635 4.91647 6.50775 8.81243 6.21289 13.8564L6.19629 14.3477C6.14972 19.7055 10.3417 23.9674 15.6865 23.9873C20.8099 24.0064 24.943 20.0718 25.2207 15.0156L25.2354 14.5234C25.2638 9.38681 21.3528 5.25476 16.2969 4.96777L15.8037 4.95215Z" stroke="#00C2BA" stroke-width="1.5"/>
</svg>
