<svg width="40" height="40" viewBox="0 0 40 40" fill="none" xmlns="http://www.w3.org/2000/svg">
<g clip-path="url(#clip0_2365_450)">
<rect width="40" height="40" fill="white"/>
<path fill-rule="evenodd" clip-rule="evenodd" d="M15.3835 29.0587L17.2012 27.3824L8.1663 19.0451V28.0962C9.3174 27.4719 10.6344 27.2297 11.9318 27.4036C13.2276 27.576 14.4356 28.1563 15.3835 29.0587ZM13.8292 31.1999C14.0096 31.0195 14.3023 31.0195 14.4828 31.1999C14.6632 31.3804 14.6632 31.6714 14.4828 31.8519L10.5351 35.8011C10.5221 35.8158 10.5075 35.8288 10.4912 35.8402C10.3693 35.9442 10.2148 35.9995 10.0539 35.9995C9.87503 36.0011 9.70269 35.9296 9.57589 35.8028L7.7468 33.9753C7.56633 33.7948 7.56633 33.5022 7.7468 33.3217C7.92727 33.1412 8.21992 33.1412 8.4004 33.3217L10.0539 34.9752L13.8292 31.1999ZM7.24287 28.7107V18.4338C7.23962 18.0224 7.41196 17.629 7.71761 17.3526L9.83448 15.3999V2.62066C9.83448 2.41092 9.97755 2.2272 10.1808 2.17356C10.384 2.12153 10.5986 2.21258 10.7011 2.3963L12.7545 5.46269L14.556 0.586653C14.6243 0.402929 14.8015 0.280988 14.9982 0.284243C15.1949 0.287495 15.3673 0.41594 15.4291 0.602915L16.8924 4.73912L18.8987 2.32632H18.897C18.993 2.21251 19.1377 2.15073 19.2856 2.16211C19.4352 2.17349 19.5685 2.25641 19.6449 2.38323L21.3391 5.18785L22.4528 1.33456C22.5032 1.16222 22.6479 1.0354 22.8251 1.00776C23.0024 0.980117 23.1796 1.05978 23.2787 1.20937L25.8801 5.13908L27.4914 2.38648C27.5775 2.2369 27.7417 2.14911 27.9141 2.15724C28.0864 2.16699 28.2392 2.27105 28.3108 2.42713L29.8212 5.51953L31.6178 2.38975L31.6162 2.39138C31.7202 2.20928 31.9332 2.11986 32.1364 2.17351C32.338 2.22717 32.4795 2.41089 32.4795 2.62062V15.3999L34.5947 17.3525V17.3509C34.8988 17.6273 35.0727 18.0208 35.0695 18.4337V35.6632C35.0678 36.5314 34.3655 37.2338 33.4989 37.2338H16.0663C15.0387 38.6093 13.4861 39.4954 11.7788 39.6807C10.0716 39.8645 8.36449 39.3312 7.0655 38.2077C5.76806 37.0826 4.99576 35.4697 4.93399 33.7545C4.87383 32.0376 5.52744 30.3743 6.74197 29.1599C6.90131 29.0021 7.06729 28.8522 7.24287 28.7107ZM16.6403 36.3101C17.1638 35.2663 17.3817 34.0957 17.2679 32.9348C17.1557 31.7723 16.7167 30.6667 16.0013 29.7432L20.7163 25.3924C20.9634 25.1632 21.3455 25.1632 21.5943 25.3924L33.4241 36.3099L16.6403 36.3101ZM14.834 29.8133C16.6078 31.5871 16.8826 34.3688 15.4892 36.4549C14.0942 38.5425 11.4213 39.3538 9.10105 38.3929C6.78257 37.4337 5.46561 34.9689 5.955 32.5072C6.44439 30.0456 8.60517 28.2734 11.1141 28.2734C12.5091 28.2717 13.8487 28.8264 14.834 29.8133ZM14.6828 23.3437C14.4276 23.3437 14.2211 23.1372 14.2211 22.882C14.2211 22.6267 14.4276 22.4186 14.6828 22.4186H27.4721C27.7273 22.4186 27.9338 22.6267 27.9338 22.882C27.9338 23.1372 27.7273 23.3437 27.4721 23.3437H14.6828ZM12.6697 20.2188C12.4145 20.2188 12.2064 20.0107 12.2064 19.7554C12.2064 19.5002 12.4145 19.2937 12.6697 19.2937H23.0573C23.3125 19.2937 23.519 19.5001 23.519 19.7554C23.519 20.0107 23.3126 20.2188 23.0573 20.2188H12.6697ZM24.8833 20.2188H29.6374C29.8927 20.2188 30.1008 20.0107 30.1008 19.7554C30.1008 19.5002 29.8927 19.2937 29.6374 19.2937H24.8817C24.6264 19.2937 24.4199 19.5001 24.4199 19.7554C24.4199 20.0107 24.6264 20.2188 24.8817 20.2188H24.8833ZM12.6697 17.089H16.9867C17.2355 17.0809 17.4338 16.876 17.4338 16.6256C17.4338 16.3769 17.2355 16.172 16.9867 16.1639H12.6697C12.4194 16.172 12.221 16.3769 12.221 16.6256C12.221 16.876 12.4194 17.0809 12.6697 17.089ZM18.8481 17.089H25.875C26.1238 17.0809 26.3221 16.876 26.3221 16.6256C26.3221 16.3769 26.1238 16.172 25.875 16.1639H18.8481C18.5977 16.172 18.3994 16.3769 18.3994 16.6256C18.3994 16.876 18.5978 17.0809 18.8481 17.089ZM27.61 17.089H29.6375C29.7627 17.0923 29.8846 17.0451 29.974 16.959C30.0634 16.8712 30.1138 16.7508 30.1138 16.6257C30.1138 16.5021 30.0634 16.3818 29.974 16.294C29.8846 16.2078 29.7627 16.1607 29.6375 16.1639H27.6084C27.358 16.172 27.1597 16.3769 27.1597 16.6257C27.1597 16.876 27.358 17.0809 27.6084 17.089L27.61 17.089ZM12.6974 13.9609H29.6374C29.7626 13.9641 29.8846 13.9186 29.974 13.8308C30.0634 13.7446 30.1138 13.6243 30.1138 13.4991C30.1138 13.3739 30.0634 13.2536 29.974 13.1674C29.8846 13.0796 29.7626 13.0325 29.6374 13.0374H12.6974C12.5722 13.0325 12.4519 13.0796 12.3608 13.1674C12.2714 13.2536 12.221 13.3739 12.221 13.4991C12.221 13.6243 12.2714 13.7446 12.3608 13.8308C12.4519 13.9186 12.5722 13.9641 12.6974 13.9609ZM12.6974 10.8327L29.6374 10.8343C29.7626 10.8376 29.8846 10.7904 29.974 10.7043C30.0634 10.6165 30.1138 10.4962 30.1138 10.371C30.1138 10.2474 30.0634 10.1271 29.974 10.0393C29.8846 9.95312 29.7626 9.90597 29.6374 9.90922H12.6974C12.5722 9.90597 12.4519 9.95312 12.3608 10.0393C12.2714 10.1271 12.221 10.2474 12.221 10.371C12.221 10.4962 12.2714 10.6165 12.3608 10.7043C12.4519 10.7904 12.5722 10.8376 12.6974 10.8343V10.8327ZM9.83443 16.6548V19.3278L8.38578 17.9913L9.83443 16.6548ZM10.7596 20.1813V4.13891L12.4911 6.72402C12.5871 6.86873 12.7562 6.94677 12.9285 6.92563C13.1008 6.9045 13.2472 6.78906 13.3073 6.62647L14.9803 2.10173L16.2924 5.81035C16.3493 5.97131 16.4924 6.08837 16.6615 6.11276C16.8322 6.13714 17.0013 6.06561 17.1021 5.92578L19.1913 3.4138L21.0952 6.56472C21.1927 6.72731 21.3797 6.81348 21.5651 6.78259C21.752 6.7517 21.9016 6.61025 21.9406 6.4249L23.0608 2.55046L25.5191 6.26881C25.6085 6.40051 25.7581 6.47855 25.9175 6.4753C26.0768 6.47042 26.2231 6.38425 26.3028 6.24605L27.8506 3.59913L29.3692 6.70943C29.444 6.86389 29.6001 6.96469 29.774 6.96794C29.9464 6.97282 30.1073 6.87852 30.1903 6.72732L31.5527 4.35356V20.1812L24.4299 26.7529L22.2187 24.7125C21.6188 24.1565 20.6904 24.1565 20.0905 24.7125L17.8793 26.7529L10.7565 20.1812L10.7596 20.1813ZM32.478 19.3278L33.9234 17.9913L32.478 16.6549V19.3278ZM34.1429 19.0449L25.1096 27.3822L34.1412 35.7162V35.6642L34.1429 19.0449Z" fill="#00C2BA" stroke="#00C2BA" stroke-width="0.3"/>
</g>
<defs>
<clipPath id="clip0_2365_450">
<rect width="40" height="40" fill="white"/>
</clipPath>
</defs>
</svg>
